<?xml version="1.0" encoding="UTF-8" standalone="no"?> <!-- Created with Vectornator for iOS (http://vectornator.io/) --><!DOCTYPE svg PUBLIC "-//W3C//DTD SVG 1.1//EN" "http://www.w3.org/Graphics/SVG/1.1/DTD/svg11.dtd">
<svg style="fill-rule:nonzero;clip-rule:evenodd;stroke-linecap:round;stroke-linejoin:round;" xmlns:vectornator="http://vectornator.io" xmlns:xlink="http://www.w3.org/1999/xlink" xmlns="http://www.w3.org/2000/svg" xml:space="preserve" version="1.1" viewBox="0 0 379.34 164.86">
<metadata>
<vectornator:setting key="DimensionsVisible" value="1"/>
<vectornator:setting key="PencilOnly" value="0"/>
<vectornator:setting key="SnapToPoints" value="0"/>
<vectornator:setting key="OutlineMode" value="0"/>
<vectornator:setting key="CMYKEnabledKey" value="0"/>
<vectornator:setting key="RulersVisible" value="1"/>
<vectornator:setting key="SnapToEdges" value="0"/>
<vectornator:setting key="GuidesVisible" value="1"/>
<vectornator:setting key="DisplayWhiteBackground" value="0"/>
<vectornator:setting key="doHistoryDisabled" value="0"/>
<vectornator:setting key="SnapToGuides" value="1"/>
<vectornator:setting key="TimeLapseWatermarkDisabled" value="0"/>
<vectornator:setting key="Units" value="Points"/>
<vectornator:setting key="DynamicGuides" value="0"/>
<vectornator:setting key="IsolateActiveLayer" value="0"/>
<vectornator:setting key="SnapToGrid" value="0"/>
</metadata>
<defs/>
<g id="Untitled" vectornator:layerName="Untitled">
<g opacity="1">
<g opacity="1">
<path d="M102.712+66.0493C102.712+66.0493+89.5366+70.2802+82.3902+58.6177C82.2454+58.3851+82.1006+58.1525+81.9455+57.931C75.2335+48.4172+67.901+38.6375+74.9439+9.47582C74.9439+9.47582+67.1977+16.0325+64.1261+23.0765C61.0649+30.1205+53.9805+44.6294+59.3274+74.2673C64.6742+103.905+61.2303+120.43+56.3489+126.499C56.3489+126.499+75.5024+120.43+64.8707+67.9432C64.8707+67.9432+56.1213+38.5822+71.0553+17.4723C71.0553+17.4723+65.212+48.2289+76.8986+64.5763C81.8214+71.4763+90.6121+74.0347+97.8723+70.1583C99.6511+69.2169+101.347+67.8879+102.712+66.0493Z" opacity="1" fill="#168ac5"/>
<path d="M51.0537+88.1227C55.1078+122.678+42.3147+136.057+42.3147+136.057C62.6782+121.792+55.9352+82.884+55.9352+82.884L51.0537+88.1227Z" opacity="1" fill="#168ac5"/>
<path d="M45.9551+95.8202L45.2001+112.068C45.2001+112.068+45.407+118.237+38.2089+121.072C31.0108+123.908+28.3632+125.757+28.7459+126.776C29.1182+127.751+30.1421+125.724+32.5001+129.047C32.7173+129.357+33.1103+129.49+33.4515+129.368C34.2375+129.102+35.4786+128.072+35.8406+124.34L35.1787+138.494C35.127+139.535+34.7857+140.554+34.1445+141.34C33.0896+142.658+31.1142+144.253+27.8979+143.832C20.2758+144.131+16.6043+154.708+16.6043+154.708L17.1318+143.489C17.1318+143.489+18.4142+138.228+23.3577+136.788L23.9058+125.015C23.9886+123.199+24.4953+121.427+25.4054+119.887C26.7809+117.561+29.2113+114.56+32.831+113.829C34.0617+113.574+35.2821+113.231+36.4301+112.688C39.0673+111.437+42.9766+108.956+43.7729+104.957C44.9933+98.8106+45.9551+95.8202+45.9551+95.8202Z" opacity="1" fill="#168ac5"/>
<path d="M34.4419+147.712L37.4504+140.782L37.4504+140.782L43.9213+144.004L43.9213+144.004L40.9128+150.934L40.9128+150.934L34.4419+147.712L34.4419+147.712Z" opacity="1" fill="#168ac5"/>
<path d="M36.2484+152.229L39.1959+145.439L39.1959+145.439L45.5355+148.596L45.5355+148.596L42.588+155.385L42.588+155.385L36.2484+152.229L36.2484+152.229Z" opacity="1" fill="#168ac5"/>
</g>
<g opacity="1">
<path d="M156.388+118.702L144.391+118.702L144.391+128.327L158.415+128.327L158.415+132.668L139.323+132.668L139.323+101.391L158.28+101.391L158.28+105.777L144.401+105.777L144.401+114.416L156.398+114.416L156.398+118.702L156.388+118.702Z" opacity="1" fill="#063b66"/>
<path d="M185.707+132.668L180.629+132.668L167.609+110.484L167.609+132.668L162.531+132.668L162.531+101.391L167.609+101.391L180.671+123.664L180.671+101.391L185.707+101.391L185.707+132.668Z" opacity="1" fill="#063b66"/>
<path d="M212.224+105.766L203.113+105.766L203.113+132.657L198.076+132.657L198.076+105.766L189.048+105.766L189.048+101.38L212.214+101.38L212.214+105.766L212.224+105.766Z" opacity="1" fill="#063b66"/>
<path d="M230.002+125.381L218.688+125.381L216.32+132.657L211.045+132.657L222.08+101.38L226.631+101.38L237.687+132.657L232.391+132.657L230.002+125.381ZM220.115+120.995L228.575+120.995L224.345+108.025L220.115+120.995Z" opacity="1" fill="#063b66"/>
<path d="M259.601+119.156L256.292+122.911L256.292+132.668L251.214+132.668L251.214+101.391L256.292+101.391L256.292+116.066L259.095+112.345L267.637+101.391L273.78+101.391L262.932+115.247L274.401+132.668L268.382+132.668L259.601+119.156Z" opacity="1" fill="#063b66"/>
<path d="M293.461+125.381L282.147+125.381L279.779+132.657L274.504+132.657L285.539+101.38L290.09+101.38L301.146+132.657L295.85+132.657L293.461+125.381ZM283.574+120.995L292.034+120.995L287.804+108.025L283.574+120.995Z" opacity="1" fill="#063b66"/>
<path d="M315.19+120.629L309.533+120.629L309.533+132.657L304.455+132.657L304.455+101.391L314.725+101.391C318.096+101.391+320.692+102.2+322.523+103.817C324.353+105.434+325.274+107.782+325.274+110.85C325.274+112.943+324.798+114.693+323.857+116.11C322.916+117.517+321.602+118.602+319.916+119.367L326.473+132.391L326.473+132.668L321.033+132.668L315.19+120.629ZM309.533+116.254L314.745+116.254C316.462+116.254+317.796+115.789+318.758+114.87C319.72+113.951+320.206+112.688+320.206+111.082C320.206+109.41+319.761+108.114+318.872+107.195C317.982+106.275+316.659+105.81+314.89+105.777L309.533+105.777C309.533+105.777+309.533+116.254+309.533+116.254Z" opacity="1" fill="#063b66"/>
<path d="M335.44+132.668L330.383+132.668L330.383+101.391L335.44+101.391L335.44+132.668Z" opacity="1" fill="#063b66"/>
<path d="M348.264+101.391L356.693+125.358L365.101+101.391L371.658+101.391L371.658+132.668L366.6+132.668L366.6+122.357L367.107+108.568L358.482+132.668L354.852+132.668L346.247+108.59L346.754+122.357L346.754+132.668L341.697+132.668L341.697+101.391L348.264+101.391Z" opacity="1" fill="#063b66"/>
</g>
<g opacity="1">
<path stroke="#063b66" stroke-width="0.5" d="M167.34+78.1216C167.867+78.1216+168.126+78.3431+168.126+78.7861L168.126+80.2149C168.126+80.8019+167.867+81.0898+167.34+81.0898L166.45+81.0898C165.995+81.0898+165.53+81.0455+165.065+80.9569C164.599+80.8683+164.155+80.7133+163.751+80.4807C163.338+80.2481+162.976+79.9269+162.645+79.506C162.314+79.0852+162.065+78.5535+161.879+77.889C161.466+78.5978+161.021+79.1627+160.535+79.5725C160.049+79.9933+159.521+80.3035+158.952+80.525C158.384+80.7465+157.773+80.8905+157.112+80.968C156.45+81.0455+155.746+81.0787+154.991+81.0787L147.069+81.0787C146.025+81.0787+145.26+81.3778+144.763+81.9759C144.277+82.5739+144.029+83.6704+144.029+85.2542L144.029+94.0592L141.288+94.0592L141.288+84.1688C141.288+82.1641+141.795+80.6468+142.809+79.6057C143.822+78.5646+145.135+78.0441+146.728+78.0441L148.745+78.0441L148.745+73.4588C148.745+72.4288+148.9+71.432+149.21+70.4574C149.521+69.4827+149.976+68.6078+150.575+67.8546C151.175+67.1015+151.91+66.4813+152.778+66.0161C153.647+65.5509+154.619+65.3183+155.715+65.3183C156.781+65.3183+157.753+65.5177+158.601+65.9053C159.459+66.293+160.183+66.8357+160.783+67.5334C161.383+68.2312+161.848+69.0619+162.169+70.0254C162.489+70.989+162.645+72.0412+162.645+73.1598L162.645+74.223C162.645+74.4667+162.676+74.81+162.727+75.253C162.789+75.6961+162.945+76.1169+163.203+76.5378C163.462+76.9587+163.855+77.3242+164.372+77.6343C164.889+77.9555+165.602+78.1105+166.513+78.1105L167.34+78.1105L167.34+78.1216ZM155.829+68.1869C155.229+68.1869+154.671+68.2866+154.143+68.4749C153.616+68.6742+153.161+68.9954+152.768+69.4495C152.375+69.9036+152.065+70.4906+151.837+71.2105C151.61+71.9304+151.496+72.8164+151.496+73.8686L151.496+78.0441L155.622+78.0441C156.45+78.0441+157.143+77.9776+157.701+77.8447C158.26+77.7118+158.704+77.4681+159.025+77.1137C159.345+76.7593+159.573+76.272+159.707+75.6518C159.842+75.0315+159.914+74.2452+159.914+73.2816C159.914+71.6646+159.563+70.4131+158.849+69.527C158.135+68.6299+157.132+68.1869+155.829+68.1869Z" fill="#063b66" stroke-linecap="butt" opacity="1" stroke-linejoin="miter"/>
<path stroke="#063b66" stroke-width="0.5" d="M166.895+81.0898C166.368+81.0898+166.109+80.8683+166.109+80.4364L166.109+79.0298C166.109+78.4539+166.368+78.1659+166.895+78.1659L172.035+78.1659L172.035+67.168L174.776+67.168L174.776+81.1009L166.895+81.1009L166.895+81.0898ZM167.96+86.993C167.96+86.5279+168.116+86.1292+168.426+85.7969C168.736+85.4646+169.108+85.2985+169.543+85.2985C169.977+85.2985+170.349+85.4646+170.66+85.7969C170.97+86.1292+171.125+86.5279+171.125+86.993C171.125+87.4582+170.97+87.8569+170.66+88.1892C170.349+88.5215+169.977+88.6876+169.543+88.6876C169.108+88.6876+168.736+88.5215+168.426+88.1892C168.116+87.8569+167.96+87.4582+167.96+86.993ZM172.511+86.993C172.511+86.5279+172.666+86.1292+172.976+85.7969C173.287+85.4646+173.659+85.2985+174.093+85.2985C174.528+85.2985+174.9+85.4646+175.21+85.7969C175.52+86.1292+175.676+86.5279+175.676+86.993C175.676+87.4582+175.52+87.8569+175.21+88.1892C174.9+88.5215+174.528+88.6876+174.093+88.6876C173.659+88.6876+173.287+88.5215+172.976+88.1892C172.666+87.8569+172.511+87.4582+172.511+86.993Z" fill="#063b66" stroke-linecap="butt" opacity="1" stroke-linejoin="miter"/>
<path stroke="#063b66" stroke-width="0.5" d="M190.692+78.1548C191.22+78.1548+191.478+78.3763+191.478+78.8083L191.478+80.2149C191.478+80.7908+191.22+81.0787+190.692+81.0787L190.041+81.0787C189.648+81.0787+189.265+81.0566+188.872+81.0123C188.479+80.968+188.107+80.8462+187.745+80.669C187.383+80.4917+187.042+80.2259+186.731+79.8715C186.421+79.5171+186.173+79.0519+185.997+78.476L185.997+81.2338C185.997+82.286+185.863+83.2717+185.594+84.191C185.325+85.1102+184.932+85.9076+184.415+86.5943C183.898+87.281+183.256+87.8126+182.481+88.2113C181.705+88.6101+180.836+88.7983+179.864+88.7983C179.337+88.7983+178.851+88.7762+178.406+88.7208C177.961+88.6765+177.61+88.6211+177.361+88.5768L177.672+85.6751L178.458+85.819C178.685+85.8633+178.923+85.8966+179.182+85.9076C179.43+85.9187+179.657+85.9298+179.864+85.9298C181.188+85.9298+182.088+85.5089+182.553+84.6783C183.018+83.8476+183.256+82.585+183.256+80.9015L183.256+67.1569L185.997+67.1569L185.997+73.8132C185.997+74.4224+186.059+74.9983+186.183+75.5189C186.307+76.0505+186.524+76.5046+186.835+76.9033C187.145+77.2909+187.548+77.601+188.055+77.8226C188.562+78.0441+189.182+78.1548+189.937+78.1548C189.937+78.1548+190.692+78.1548+190.692+78.1548Z" fill="#063b66" stroke-linecap="butt" opacity="1" stroke-linejoin="miter"/>
<path stroke="#063b66" stroke-width="0.5" d="M190.185+81.0898C189.658+81.0898+189.4+80.8683+189.4+80.4364L189.4+79.0298C189.4+78.4539+189.658+78.1659+190.185+78.1659L201.52+78.1659L201.52+73.6803C201.52+72.5728+201.386+71.7089+201.127+71.0665C200.869+70.4241+200.507+69.959+200.052+69.6489C199.597+69.3387+199.069+69.1505+198.48+69.0619C197.89+68.9733+197.249+68.929+196.567+68.929L192.864+68.929L192.864+65.994C193.981+64.089+195.057+62.2283+196.101+60.423C197.135+58.6177+198.242+56.757+199.4+54.852C199.855+55.1732+200.238+55.4501+200.528+55.6716C200.827+55.9042+201.179+56.17+201.593+56.458L195.739+66.1379L197.415+66.1379C198.283+66.1379+199.131+66.2376+199.948+66.448C200.765+66.6585+201.5+67.024+202.131+67.5445C202.761+68.0761+203.279+68.796+203.672+69.7264C204.065+70.6567+204.261+71.8529+204.261+73.3148L204.261+81.0898C204.261+81.0898+190.185+81.0898+190.185+81.0898Z" fill="#063b66" stroke-linecap="butt" opacity="1" stroke-linejoin="miter"/>
<path stroke="#063b66" stroke-width="0.5" d="M245.95+78.1548C246.477+78.1548+246.736+78.3763+246.736+78.8083L246.736+80.2149C246.736+80.7908+246.477+81.0787+245.95+81.0787L245.029+81.0787C244.047+81.0787+243.199+80.8683+242.475+80.4474C241.751+80.0266+241.234+79.2956+240.913+78.2545C240.479+79.4174+239.9+80.1706+239.166+80.536C238.431+80.9015+237.594+81.0787+236.632+81.0787L219.94+81.0787C219.123+81.0787+218.43+80.9458+217.871+80.68C217.313+80.4142+216.858+80.0598+216.496+79.6168C216.144+79.1738+215.896+78.6532+215.741+78.0551C215.596+77.4571+215.524+76.8368+215.524+76.1723L215.524+70.3798L218.264+70.3798L218.264+75.4081C218.264+76.3827+218.419+77.0916+218.74+77.5124C219.061+77.9444+219.547+78.1548+220.209+78.1548L236.477+78.1548C237.325+78.1548+237.873+77.9001+238.131+77.4017C238.39+76.9033+238.524+76.2166+238.524+75.3638L238.524+67.1569L241.265+67.1569L241.265+73.8132C241.265+74.4224+241.327+74.9983+241.451+75.5189C241.575+76.0505+241.792+76.5046+242.082+76.9033C242.382+77.2909+242.775+77.601+243.282+77.8226C243.788+78.0441+244.399+78.1548+245.133+78.1548C245.133+78.1548+245.95+78.1548+245.95+78.1548ZM224.625+60.1572C224.625+59.692+224.78+59.2933+225.09+58.961C225.4+58.6288+225.773+58.4626+226.207+58.4626C226.641+58.4626+227.014+58.6288+227.324+58.961C227.634+59.2933+227.789+59.692+227.789+60.1572C227.789+60.6223+227.634+61.0211+227.324+61.3533C227.014+61.6856+226.641+61.8517+226.207+61.8517C225.773+61.8517+225.4+61.6856+225.09+61.3533C224.78+61.0211+224.625+60.6223+224.625+60.1572ZM229.175+60.1572C229.175+59.692+229.33+59.2933+229.64+58.961C229.951+58.6288+230.323+58.4626+230.757+58.4626C231.192+58.4626+231.564+58.6288+231.874+58.961C232.185+59.2933+232.34+59.692+232.34+60.1572C232.34+60.6223+232.185+61.0211+231.874+61.3533C231.564+61.6856+231.192+61.8517+230.757+61.8517C230.323+61.8517+229.951+61.6856+229.64+61.3533C229.33+61.0211+229.175+60.6223+229.175+60.1572Z" fill="#063b66" stroke-linecap="butt" opacity="1" stroke-linejoin="miter"/>
<path stroke="#063b66" stroke-width="0.5" d="M245.443+81.0898C244.916+81.0898+244.657+80.8683+244.657+80.4364L244.657+79.0298C244.657+78.4539+244.916+78.1659+245.443+78.1659L250.583+78.1659L250.583+67.168L253.324+67.168L253.324+81.1009L245.443+81.1009L245.443+81.0898ZM250.304+60.1572C250.304+59.692+250.459+59.2933+250.769+58.961C251.08+58.6288+251.452+58.4626+251.886+58.4626C252.321+58.4626+252.693+58.6288+253.003+58.961C253.313+59.2933+253.469+59.692+253.469+60.1572C253.469+60.6223+253.313+61.0211+253.003+61.3533C252.693+61.6856+252.321+61.8517+251.886+61.8517C251.452+61.8517+251.08+61.6856+250.769+61.3533C250.459+61.0211+250.304+60.6223+250.304+60.1572Z" fill="#063b66" stroke-linecap="butt" opacity="1" stroke-linejoin="miter"/>
<path stroke="#063b66" stroke-width="0.5" d="M258.795+54.8077L261.432+54.8077L261.432+81.1009L258.795+81.1009L258.795+54.8077Z" fill="#063b66" stroke-linecap="butt" opacity="1" stroke-linejoin="miter"/>
</g>
<path stroke="#168ac5" stroke-width="1.5" d="M371.647+77.3685L270.729+77.3685" fill="none" stroke-linecap="butt" opacity="1" stroke-linejoin="miter"/>
<path stroke="#168ac5" stroke-width="2" d="M51.6639+146.756C54.6941+147.299+57.8174+147.576+60.9925+147.576C92.0497+147.576+117.222+120.618+117.222+87.3585C117.222+59.8692+100.023+36.6882+76.5262+29.467" fill="none" stroke-linecap="butt" opacity="1" stroke-linejoin="miter"/>
<path stroke="#168ac5" stroke-width="2" d="M57.8071+27.2409C28.2288+29.0019+4.75232+55.2507+4.75232+87.3696C4.75232+102.299+9.81993+115.955+18.2177+126.477" fill="none" stroke-linecap="butt" opacity="1" stroke-linejoin="miter"/>
</g>
</g>
</svg>
