<?xml version="1.0" encoding="utf-8"?>
<!-- Generator: Adobe Illustrator 24.0.2, SVG Export Plug-In . SVG Version: 6.00 Build 0)  -->
<svg xmlns="http://www.w3.org/2000/svg"
              className="h-5 w-5"
              viewBox="0 0 20 20">
	<path class="st0" d="M9.9,16.5c-1.5,0-2.9,0-4.4,0c-0.2,0-0.2,0-0.2-0.2c0-1.3,0-2.7,0-4c0-0.7,0.1-1.3,0.5-1.9
		C6,10,6.2,9.6,6.7,9.4C6.9,9.3,7.1,9.1,7.3,9c0.2-0.1,0.5-0.2,0.8-0.2c1-0.1,2.1-0.1,3.1-0.1c0.5,0,0.9,0.1,1.4,0.3
		c0.3,0.1,0.4,0.3,0.7,0.4c0.4,0.3,0.6,0.7,0.9,1.1c0.2,0.3,0.3,0.7,0.3,1c0.1,1.6,0,3.1,0.1,4.7c0,0.2-0.1,0.2-0.2,0.2
		C12.8,16.5,11.3,16.5,9.9,16.5z"/>
	<path class="st0" d="M14.3,9.6c0.9-0.2,1.8-0.2,2.6-0.1c0.4,0,0.9,0.1,1.3,0.3c0.5,0.3,0.9,0.7,1.1,1.2c0.2,0.4,0.3,0.7,0.3,1.1
		c0,1,0,2,0,3c0,0.1,0,0.2,0,0.2c-1.5,0-2.9,0-4.4,0c0-0.1,0-0.2,0-0.2c0-1.1,0-2.2,0-3.3c0-0.4-0.1-0.8-0.2-1.2
		c-0.1-0.4-0.4-0.7-0.5-1C14.4,9.7,14.4,9.6,14.3,9.6z"/>
	<path class="st0" d="M4.5,15.4c-1.4,0-2.8,0-4.1,0c0-0.1,0-0.1,0-0.2c0-1,0-2.1,0-3.1c0-0.2,0-0.5,0.1-0.7c0.2-0.4,0.3-0.8,0.6-1.1
		c0.3-0.3,0.7-0.6,1.2-0.7C2.6,9.5,3,9.4,3.4,9.4c0.4,0,0.8,0,1.2,0c0.3,0,0.5,0,0.8,0.1c0,0.1-0.1,0.2-0.1,0.2
		c-0.2,0.3-0.4,0.6-0.5,1c-0.1,0.2-0.1,0.4-0.2,0.6c0,0.3-0.1,0.6-0.1,1c0,0.9,0,1.9,0,2.8C4.5,15.2,4.5,15.3,4.5,15.4z"/>
	<path class="st0" d="M7.2,5.6c0-1.5,1.3-2.8,2.7-2.7c0.5,0,1,0.1,1.4,0.4c0.9,0.5,1.3,1.4,1.3,2.3c0,0.7-0.2,1.3-0.7,1.9
		c-0.6,0.6-1.2,0.9-2.1,0.9C8.4,8.4,7.2,7.1,7.2,5.6z"/>
	<path class="st0" d="M1.9,7.1C1.9,6,2.8,5,4,5c1.2,0,2.1,1,2.1,2.1c0,1.1-0.9,2.1-2.1,2.1C2.8,9.1,1.9,8.2,1.9,7.1z"/>
	<path class="st0" d="M16.1,5c1.2,0,2.1,1,2.1,2.1c0,1.2-0.8,2.1-2.1,2.1c-1.2,0-2.1-0.9-2.1-2.1C14,6,14.9,4.9,16.1,5z"/>
</svg>
