<?xml version="1.0" encoding="utf-8"?>
<!-- Generator: Adobe Illustrator 24.0.2, SVG Export Plug-In . SVG Version: 6.00 Build 0)  -->
<svg version="1.1" id="Layer_1" xmlns="http://www.w3.org/2000/svg" xmlns:xlink="http://www.w3.org/1999/xlink" x="0px" y="0px"
	 viewBox="0 0 20 20" style="enable-background:new 0 0 20 20;" xml:space="preserve">
<path d="M19.3,8.3l-5.1-5.1c-0.3-0.3-0.8-0.3-1.1,0l-2.3,2.3c-0.3,0.3-0.3,0.8,0,1.1l0.6,0.6c-0.4,0-1,0.2-1,0.2L8.9,7l0.4-0.4
	c0.1-0.1,0.2-0.3,0.2-0.6c0-0.2-0.1-0.4-0.2-0.6L6.9,3.2c-0.3-0.3-0.8-0.3-1.1,0L0.7,8.3C0.5,8.5,0.4,8.7,0.4,8.9
	c0,0.2,0.1,0.4,0.2,0.6L3,11.8C3.2,11.9,3.4,12,3.6,12s0.4-0.1,0.6-0.2l0.2-0.2c0.4,0.9,1.8,2.6,2.8,3.6l1.3,1.3
	c0.4,0.4,0.8,0.5,1,0.5c0.3,0,0.6-0.1,0.8-0.4c0.2-0.2,0.3-0.5,0.3-0.6c0.3,0.1,0.7,0,1-0.2c0.2-0.2,0.3-0.5,0.3-0.6
	c0.3,0.1,0.7,0,1-0.2c0.2-0.2,0.3-0.5,0.3-0.6c0.3,0.1,0.7,0,1-0.2c0.2-0.2,0.5-0.6,0.3-1.2c0.4-0.3,1-0.7,1.6-1.1
	c0.1,0.1,0.3,0.2,0.5,0.2c0.2,0,0.4-0.1,0.6-0.2l2.3-2.3C19.6,9.1,19.6,8.6,19.3,8.3z M3.6,11L1.5,8.9L6.3,4l2.1,2.1L3.6,11z
	 M13.4,13.4c0,0-0.1,0-0.2,0c-0.1,0-0.2-0.1-0.3-0.1c-0.2,0-0.4,0.1-0.5,0.2c-0.2,0.2-0.2,0.4-0.3,0.6c0,0.1,0,0.1,0,0.1
	c0,0-0.1,0-0.2,0c-0.1,0-0.2-0.1-0.3-0.1c-0.3,0-0.4,0.1-0.5,0.2c-0.2,0.2-0.2,0.4-0.3,0.6c0,0.1,0,0.1,0,0.1c0,0-0.1,0-0.2,0
	c-0.1,0-0.2,0-0.3,0c-0.3,0-0.4,0.1-0.5,0.2c-0.2,0.2-0.2,0.4-0.3,0.6c0,0.1,0,0.1-0.1,0.2C9.4,16,9.4,16,9.4,16
	C9.3,16,9.1,16,9,15.9l-1.3-1.3c-1.1-1.1-2.3-2.8-2.8-3.6l3.2-3.2L8.8,8C8.2,8.4,7.8,9.1,7.4,9.5C7.3,9.7,7.2,9.8,7.1,9.9
	c-0.3,0.3-0.4,0.6-0.3,0.9c0.1,0.2,0.3,0.4,0.5,0.7c0.2,0.2,0.5,0.3,0.8,0.3c0.6,0,1.2-0.5,1.8-0.9c0.1-0.1,0.5-0.3,0.7-0.5
	c0.9,0.8,1.8,1.7,2.4,2.3C13.6,13.2,13.4,13.3,13.4,13.4z M13.8,12.1C13.8,12.1,13.8,12,13.8,12.1c-0.9-0.9-2-1.8-2.6-2.4
	c-0.2-0.2-0.6-0.1-0.8,0c-0.3,0.1-0.6,0.2-1,0.5c-0.4,0.3-0.9,0.7-1.2,0.7c0,0-0.3-0.2-0.3-0.2c-0.1-0.1,0.2-0.3,0.3-0.5
	c0.5-0.6,1.2-1.4,2.1-1.7c0.8-0.3,1.3-0.2,2-0.2l2.9,2.9C14.7,11.4,14.2,11.8,13.8,12.1z M16.4,11l-4.9-4.9L13.7,4l4.9,4.9L16.4,11z
	"/>
</svg>
